<svg xmlns="http://www.w3.org/2000/svg" xmlns:xlink="http://www.w3.org/1999/xlink" version="1.1" width="34" height="32" viewBox="0 0 1000 1000" xml:space="preserve">
<desc>Created with Fabric.js 3.5.0</desc>
<defs>
</defs>
<rect x="0" y="0" width="100%" height="100%" fill="#ecf1f2"/>
<g transform="matrix(32.4675 0 0 32.4675 499.9995 499.9995)" id="82892">
<path style="stroke: none; stroke-width: 1; stroke-dasharray: none; stroke-linecap: butt; stroke-dashoffset: 0; stroke-linejoin: miter; stroke-miterlimit: 4; is-custom-font: none; font-file-url: none; fill: rgb(232,170,49); fill-rule: nonzero; opacity: 1;" vector-effect="non-scaling-stroke" transform=" translate(-14, -13.2914)" d="M 20.1004 0 C 17.7169 0 15.4856 1.07339 14 2.87184 C 12.5144 1.07333 10.2832 0 7.89957 0 C 3.54375 0 0 3.52462 0 7.85705 C 0 11.2495 2.03385 15.1734 6.04492 19.5198 C 9.13175 22.8646 12.4897 25.4544 13.4454 26.1685 L 13.9998 26.5828 L 14.5543 26.1686 C 15.5099 25.4545 18.868 22.8647 21.9549 19.52 C 25.9661 15.1736 28 11.2496 28 7.85705 C 28 3.52462 24.4562 0 20.1004 0 Z M 20.5948 18.2782 C 18.0558 21.0293 15.3242 23.2533 13.9998 24.2783 C 12.6755 23.2533 9.944 21.0293 7.40498 18.2781 C 3.76837 14.3375 1.84615 10.734 1.84615 7.85705 C 1.84615 4.53717 4.56172 1.83622 7.89957 1.83622 C 10.0961 1.83622 12.1243 3.02694 13.1927 4.94377 L 14 6.3923 L 14.8073 4.94377 C 15.8756 3.027 17.9038 1.83622 20.1004 1.83622 C 23.4383 1.83622 26.1538 4.53711 26.1538 7.85705 C 26.1538 10.7341 24.2316 14.3377 20.5948 18.2782 Z" stroke-linecap="round"/>
</g>
<g transform="matrix(2.2274 0 0 2.2652 500.6876 510.3618)" id="159092">
<path style="stroke: none; stroke-width: 1; stroke-dasharray: none; stroke-linecap: butt; stroke-dashoffset: 0; stroke-linejoin: miter; stroke-miterlimit: 4; is-custom-font: none; font-file-url: none; fill: rgb(0,0,0); fill-rule: nonzero; opacity: 1;" vector-effect="non-scaling-stroke" transform=" translate(-256, -256)" d="M 340.8 83 C 307 83 276 98.8 256 124.8 c -20 -26 -51 -41.8 -84.8 -41.8 C 112.1 83 64 131.3 64 190.7 c 0 27.9 10.6 54.4 29.9 74.6 L 245.1 418 l 10.9 11 l 10.9 -11 l 148.3 -149.8 c 21 -20.3 32.8 -47.9 32.8 -77.5 C 448 131.3 399.9 83 340.8 83 L 340.8 83 z" stroke-linecap="round"/>
</g>
</svg>