<?xml version="1.0" encoding="utf-8"?><svg viewBox="0 0 190 29" xmlns="http://www.w3.org/2000/svg" xmlns:xlink="http://www.w3.org/1999/xlink"><style>:root>svg{display:none}:root>svg:target{display:block}</style><svg fill="none" viewBox="0 0 190 25" id="logo" xmlns="http://www.w3.org/2000/svg"><path d="M1.522.343v9.66h.445c.034-.554.12-1.114.262-1.673a10.22 10.22 0 01.537-1.627c.217-.514.468-.982.753-1.405.28-.416.588-.753.914-1.016.24-.2.548-.388.93-.57.383-.184.84-.332 1.371-.446.537-.12 1.148-.177 1.844-.183h7.262L.562 24.116l.069.206h22.095v-11.1h-.445a22.411 22.411 0 01-.189 1.914 15.474 15.474 0 01-.4 1.884 9.22 9.22 0 01-.673 1.701 5.33 5.33 0 01-1 1.353c-.496.463-1.021.8-1.57 1.017a6.283 6.283 0 01-1.655.41c-.548.063-1.073.086-1.57.08H7.687L22.897.548l-.17-.205H1.521zm28.09 20.142c.005.28-.006.565-.04.862a3.044 3.044 0 01-.229.88 2.25 2.25 0 01-.588.793c-.257.211-.542.377-.868.486-.32.114-.65.194-.993.24-.343.045-.668.079-.982.097l-.582.034v.445h24.047V13.908h-.445l-.102 1.062a19.67 19.67 0 01-.235 1.696 7.09 7.09 0 01-.525 1.644c-.24.537-.594 1.028-1.056 1.49a4.882 4.882 0 01-.628.525c-.275.2-.622.395-1.05.583a7.46 7.46 0 01-1.542.48c-.6.125-1.296.188-2.09.193h-7.845V4.18c-.005-.2.006-.45.04-.748a3.64 3.64 0 01.229-.925c.126-.32.32-.604.588-.862.245-.217.53-.377.856-.485a5.174 5.174 0 011.017-.24 13.2 13.2 0 01.97-.097l.583-.034V.343H25.33v.445l.582.034c.303.017.628.052.977.097.342.046.679.126 1.01.24.325.108.611.268.856.485.268.258.468.543.588.863.12.32.2.628.229.924.034.297.045.548.04.748v16.306zM62.017 0L54.55 18.019c-.251.588-.48 1.09-.685 1.501-.206.411-.383.754-.537 1.028-.154.268-.285.486-.388.657a7.735 7.735 0 01-.45.656 5.5 5.5 0 01-.72.77 4.725 4.725 0 01-1.034.698c-.4.205-.862.354-1.393.445l-.65.103v.445H60.99v-.445l-.856-.069a6.594 6.594 0 01-1.08-.171 4.329 4.329 0 01-1.084-.423 2.542 2.542 0 01-.85-.742 2.386 2.386 0 01-.383-.913 3.746 3.746 0 01-.057-1.08c.028-.364.108-.707.234-1.021l1.302-3.186h8.77l1.54 3.768c.092.211.166.44.235.69.068.258.102.503.108.749-.006.508-.103.913-.297 1.21a1.798 1.798 0 01-.73.674 2.212 2.212 0 01-.56.222c-.217.057-.48.11-.8.149-.319.04-.713.074-1.175.108l-.514.035v.445H78.22v-.445l-.548-.034a5.405 5.405 0 01-1.199-.206 5.612 5.612 0 01-1.085-.423 3.686 3.686 0 01-.833-.57 3.71 3.71 0 01-.577-.783 13.16 13.16 0 01-.628-1.29c-.228-.53-.514-1.21-.85-2.038L64.93 0h-2.912zm4.111 13.874h-7.057l3.494-8.427h.069l3.494 8.427zM88.567 3.083h2.535c.2-.006.451.006.754.029.302.023.627.068.981.148.355.074.708.194 1.062.354.36.166.691.388 1.005.668.286.263.543.611.777 1.05.228.44.434.926.605 1.457.177.536.32 1.079.428 1.627.108.548.177 1.067.211 1.553h.446V.343H75.515v9.626h.446c.034-.486.108-1.005.217-1.553.102-.548.245-1.09.422-1.627.171-.531.377-1.017.61-1.456.23-.44.486-.788.772-1.051.314-.28.645-.502 1.004-.668.355-.16.709-.28 1.063-.354.353-.08.68-.125.982-.148.302-.023.553-.035.753-.029h2.535v17.402c.006.2-.005.451-.04.748a3.634 3.634 0 01-.228.925c-.12.314-.32.605-.588.862-.246.211-.531.377-.857.486a5.633 5.633 0 01-1.01.24c-.349.045-.674.073-.977.097l-.582.034v.445h12.812v-.445l-.583-.034a17.101 17.101 0 01-.97-.098 5.571 5.571 0 01-1.016-.24 2.541 2.541 0 01-.857-.485 2.456 2.456 0 01-.588-.862c-.12-.32-.2-.628-.228-.925a5.379 5.379 0 01-.04-.748V3.083zM132.21.343h-10.277l-6.406 16.272h-.103L109.018.343H98.33v.445l.583.034c.302.017.627.052.976.097.342.046.679.126 1.01.24.326.108.611.268.857.485.268.258.468.543.588.863.119.32.199.628.228.924.034.297.046.548.04.748V19.8c.006.263-.011.582-.045.96-.035.376-.115.758-.24 1.141-.12.383-.314.708-.571.983a2.61 2.61 0 01-.845.53c-.337.137-.686.24-1.04.308a6.67 6.67 0 01-.958.12l-.583.035v.445h11.544v-.445l-.582-.034a6.67 6.67 0 01-.959-.12 5.566 5.566 0 01-1.039-.309 2.6 2.6 0 01-.845-.53 2.24 2.24 0 01-.48-.743 4 4 0 01-.257-.88 8.124 8.124 0 01-.102-.833 14.324 14.324 0 01-.018-.628V3.666h.103l8.153 20.656h1.576l8.153-20.656h.103v16.82c.005.2-.006.45-.04.747a3.424 3.424 0 01-.229.925 2.37 2.37 0 01-.588.862c-.245.211-.531.377-.856.486a5.62 5.62 0 01-1.011.24c-.348.045-.673.073-.976.097l-.582.034v.445h12.812v-.445l-.583-.034a17.233 17.233 0 01-.971-.098 5.415 5.415 0 01-1.01-.24 2.506 2.506 0 01-.862-.485 2.447 2.447 0 01-.588-.862c-.12-.32-.2-.628-.229-.925a6.42 6.42 0 01-.039-.748V4.18c-.006-.2.011-.45.039-.748.029-.296.109-.605.229-.925.126-.32.319-.604.588-.862.245-.217.531-.377.862-.485a5.027 5.027 0 011.01-.24c.343-.045.669-.08.971-.097l.583-.034V.343zM144.781 0l-7.467 18.019c-.251.588-.48 1.09-.685 1.501-.206.411-.383.754-.537 1.028-.154.268-.286.486-.388.657a7.895 7.895 0 01-.451.656 5.495 5.495 0 01-.72.77 4.722 4.722 0 01-1.033.698c-.4.205-.862.354-1.393.445l-.651.103v.445h12.298v-.445l-.857-.069a6.611 6.611 0 01-1.079-.171 4.339 4.339 0 01-1.085-.423 2.548 2.548 0 01-.85-.742 2.385 2.385 0 01-.382-.913 3.76 3.76 0 01-.058-1.08c.029-.364.109-.707.235-1.021l1.301-3.186h8.77l1.541 3.768c.092.211.166.44.234.69.069.258.103.503.109.749-.006.508-.103.913-.297 1.21a1.794 1.794 0 01-.731.674 2.194 2.194 0 01-.559.222c-.217.057-.48.11-.8.149-.319.04-.713.074-1.176.108l-.514.035v.445h13.429v-.445l-.548-.034a5.391 5.391 0 01-1.199-.206 5.61 5.61 0 01-1.085-.423 3.695 3.695 0 01-.834-.57 3.752 3.752 0 01-.576-.783 13.05 13.05 0 01-.628-1.29c-.229-.53-.514-1.21-.851-2.038L147.694 0h-2.913zm4.112 13.874h-7.057l3.494-8.427h.068l3.495 8.427zM159.752.343v.445l.651.137c.416.097.845.28 1.284.542.44.263.862.565 1.267.914.406.348.766.696 1.08 1.045l7.913 8.804-6.68 7.776c-.114.143-.28.314-.485.52a25.651 25.651 0 01-1.37 1.261c-.217.189-.4.337-.543.445a9.464 9.464 0 01-1.747 1.017c-.622.28-1.239.49-1.85.628v.445h13.463v-.445l-.822-.069c-.645-.057-1.142-.131-1.496-.217a13.1 13.1 0 01-.697-.194 2.945 2.945 0 01-.69-.36 1.737 1.737 0 01-.537-.576c-.137-.234-.206-.526-.211-.88a2.1 2.1 0 01.217-.844c.137-.297.291-.572.468-.822.177-.252.325-.452.445-.595l4.351-5.07 4.693 5.173c.245.263.474.537.691.817.216.285.399.57.536.868.137.29.206.588.211.885-.005.336-.097.616-.279.839a1.976 1.976 0 01-.714.53 4.174 4.174 0 01-1.084.344 8.92 8.92 0 01-1.211.137l-.993.034v.445H190v-.445a6.187 6.187 0 01-2.638-.993 11.427 11.427 0 01-1.804-1.57 60.977 60.977 0 01-1.827-2.028l-7.297-8.153 4.625-5.343c.331-.383.68-.789 1.045-1.223.371-.434.765-.856 1.187-1.267.418-.411.874-.782 1.365-1.108a9.168 9.168 0 011.005-.559 9.555 9.555 0 011.164-.457 7.06 7.06 0 011.188-.285l.685-.103V.343h-13.771v.445l.856.069c.629.05 1.143.142 1.542.268.4.126.708.28.925.45.252.19.434.395.537.623.103.234.154.491.149.782a2.878 2.878 0 01-.149.92 3.046 3.046 0 01-.343.708 4.963 4.963 0 01-.399.53l-3.426 4.009-4.864-5.413c-.183-.206-.314-.388-.383-.548a1.034 1.034 0 01-.097-.445c-.006-.263.057-.52.2-.771.137-.252.388-.474.759-.668.177-.08.383-.155.622-.217.24-.063.486-.114.731-.154.246-.034.468-.063.668-.074l.788-.069V.343h-13.291z" fill="#1F1C21"/></svg><svg fill="none" viewBox="0 0 22 29" id="person" xmlns="http://www.w3.org/2000/svg"><path d="M10.594 15.312h.167c1.524-.029 2.757-.619 3.667-1.747 2.003-2.487 1.67-6.748 1.634-7.155-.13-3.053-1.441-4.514-2.523-5.196-.807-.51-1.748-.785-2.8-.808h-.088c-.577 0-1.711.104-2.799.785-1.092.682-2.424 2.143-2.554 5.219-.036.407-.37 4.668 1.634 7.155.905 1.128 2.138 1.718 3.662 1.747zM6.687 6.553c0-.017.005-.034.005-.046.172-4.107 2.82-4.548 3.954-4.548h.063c1.404.034 3.792.664 3.953 4.548 0 .017 0 .035.006.046.005.04.369 3.935-1.285 5.986-.656.814-1.53 1.215-2.68 1.226h-.052c-1.144-.011-2.023-.412-2.674-1.226-1.649-2.04-1.295-5.952-1.29-5.986z" fill="#fff"/><path d="M21.368 22.38v-.017c0-.046-.005-.091-.005-.143-.031-1.134-.099-3.786-2.357-4.634-.015-.006-.036-.012-.052-.017-2.346-.66-4.297-2.148-4.318-2.166-.317-.246-.754-.16-.978.19-.224.349-.146.83.172 1.076.088.07 2.159 1.656 4.75 2.39 1.212.474 1.347 1.9 1.384 3.207 0 .052 0 .097.005.143.005.516-.026 1.312-.11 1.77-.842.527-4.146 2.349-9.172 2.349-5.004 0-8.329-1.827-9.177-2.354-.083-.459-.12-1.255-.11-1.77 0-.046.006-.092.006-.144.037-1.306.172-2.732 1.384-3.208 2.59-.733 4.661-2.325 4.75-2.388.317-.247.395-.728.172-1.077-.224-.35-.661-.436-.979-.19-.02.018-1.96 1.507-4.318 2.166a.613.613 0 00-.052.017C.105 18.434.038 21.086.007 22.214c0 .052 0 .098-.006.144v.017c-.005.298-.01 1.827.266 2.595a.723.723 0 00.27.36c.156.115 3.897 2.739 10.156 2.739 6.258 0 9.999-2.63 10.155-2.738a.755.755 0 00.27-.361c.26-.762.255-2.292.25-2.59z" fill="#fff"/></svg></svg>