<svg width="110" height="25" viewBox="0 0 110 25" fill="none" xmlns="http://www.w3.org/2000/svg">
<path fill-rule="evenodd" clip-rule="evenodd" d="M55.4819 21.9852C55.4819 21.9852 56.1275 21.6723 57.2598 21.2512C57.8432 21.5303 59.1218 22.1115 60.3599 22.4692C62.0357 22.9532 63.1527 22.8787 64.7167 22.8787C66.2804 22.8787 68.5147 22.6181 68.5147 22.6181C68.5147 22.6181 68.1796 21.3895 68.1423 20.4958C68.1052 19.602 68.1052 19.4531 68.1052 19.4531C68.1052 19.4531 67.7699 20.7192 67.8444 21.3895C67.9189 22.0596 67.9189 22.2831 67.9189 22.2831C67.9189 22.2831 64.9773 22.581 62.8921 22.3575C60.8068 22.1341 59.5408 21.9105 58.6471 21.6128C58.1547 21.4486 57.685 21.3072 57.3624 21.2132C58.9421 20.6316 61.4143 19.861 64.3813 19.416C69.5943 18.6339 68.5518 18.8946 68.5518 18.8946C68.5518 18.8946 68.6636 18.6712 69.3337 18.5969C70.004 18.5223 76.8554 18.1872 78.9781 18.3361C81.1005 18.4849 86.9465 18.783 87.803 19.3415C88.6594 19.9 88.9945 20.4585 88.7339 21.8362C88.4732 23.214 87.952 24.5546 87.4678 24.2566C86.9838 23.9587 85.3455 22.6928 83.7815 22.4692C82.2176 22.2459 80.5046 22.2831 79.7972 22.4692C79.0897 22.6555 77.8981 23.4002 77.3396 23.2141C76.7811 23.0279 75.664 21.9852 74.7704 22.3576C73.8767 22.73 73.8394 22.8416 73.4298 23.3629C73.0203 23.8843 72.4616 24.4801 72.0148 23.9216C71.5679 23.3629 70.7488 23.1023 70.0412 23.065C69.3338 23.0279 68.7008 23.2513 68.5147 23.4374C68.3284 23.6237 68.0678 23.9959 68.0678 23.9959C68.0678 23.9959 66.9135 23.6982 65.5729 23.8471C64.2325 23.9959 61.9239 24.1077 60.3599 23.8098C58.796 23.5119 55.4819 21.9852 55.4819 21.9852ZM69.5572 22.432C69.5572 22.432 71.0468 22.1713 71.6054 22.5808C72.1639 22.9905 72.2755 23.3256 73.2809 22.5065C74.2864 21.6872 74.9192 21.0914 76.0364 21.6872C77.1535 22.2831 77.6749 22.6554 78.7547 22.0968C79.8345 21.5383 82.1805 20.9425 84.1539 21.7617C86.1274 22.5808 87.6543 23.8842 87.952 23.065C88.2499 22.2457 88.3989 21.352 86.8722 21.0171C85.3455 20.6819 83.0742 20.3095 80.9889 20.6446C78.9035 20.9798 78.5313 21.9478 77.6749 21.6872C76.8183 21.4265 75.8876 20.6447 74.8449 21.0541C73.8022 21.4638 72.9085 22.7299 72.0521 22.3202C71.1957 21.9107 70.5999 21.5383 70.0787 21.7989C69.5572 22.0596 69.5572 22.432 69.5572 22.432Z" fill="white"/>
<path d="M1.37243 0.196498V5.73386H1.62751C1.64721 5.41644 1.69629 5.09562 1.77816 4.77498C1.85661 4.45094 1.958 4.14017 2.08572 3.84228C2.21003 3.54762 2.35405 3.27946 2.51759 3.0371C2.67809 2.79832 2.85471 2.60504 3.04154 2.45439C3.17893 2.34011 3.35555 2.23192 3.5748 2.12731C3.79405 2.02252 4.05594 1.93744 4.36027 1.87205C4.66801 1.80327 5.01821 1.7705 5.41731 1.76727H9.58022L0.82251 13.824L0.861738 13.9418H13.5273V7.57959H13.272C13.2523 7.93981 13.2162 8.30612 13.1638 8.67602C13.1083 9.04592 13.0331 9.40597 12.9349 9.75598C12.8334 10.1062 12.7056 10.4302 12.5487 10.7313C12.3916 11.0292 12.2017 11.2877 11.9759 11.507C11.6912 11.7721 11.3901 11.9652 11.0759 12.0897C10.7585 12.214 10.4443 12.2924 10.1267 12.3252C9.81273 12.3612 9.51162 12.3741 9.22681 12.3709H4.9068L13.6254 0.31419L13.5273 0.196498H1.37243ZM17.4742 11.7427C17.4774 11.9028 17.4709 12.0665 17.4514 12.2367C17.4349 12.4069 17.3891 12.5771 17.3205 12.7408C17.2517 12.9045 17.1371 13.0582 16.9834 13.1958C16.8359 13.3167 16.6726 13.4118 16.4858 13.474C16.3027 13.5395 16.1128 13.5852 15.9165 13.6113C15.72 13.6375 15.5335 13.657 15.3535 13.667L15.0198 13.6866V13.9418H28.8043V7.97223H28.5491L28.4903 8.58126C28.4608 8.90513 28.4149 9.22594 28.3562 9.55303C28.2938 9.87707 28.1957 10.1913 28.0551 10.4956C27.9175 10.8033 27.7147 11.0848 27.4496 11.3499C27.3677 11.4349 27.2467 11.5365 27.0896 11.6508C26.9323 11.7654 26.7329 11.8768 26.4873 11.9847C26.2419 12.0961 25.9473 12.1876 25.6037 12.2598C25.2599 12.3317 24.8608 12.3677 24.4059 12.3709H19.9091V2.39563C19.9058 2.28099 19.9123 2.13716 19.9322 1.96699C19.9485 1.79682 19.9941 1.62003 20.0629 1.43678C20.1351 1.25335 20.2462 1.08999 20.4 0.94257C20.5408 0.818255 20.7044 0.726533 20.8909 0.664555C21.0809 0.598995 21.2738 0.553148 21.4735 0.526816C21.6699 0.500843 21.8565 0.481128 22.0299 0.471276L22.3638 0.451754V0.196498H15.0198V0.451754L15.3535 0.471276C15.5271 0.481128 15.7135 0.500843 15.9133 0.526816C16.1094 0.553148 16.3027 0.598995 16.4924 0.664555C16.679 0.726533 16.8428 0.818255 16.9834 0.94257C17.1371 1.08999 17.2517 1.25335 17.3205 1.43678C17.3891 1.62003 17.4349 1.79682 17.4514 1.96699C17.4709 2.13716 17.4774 2.28099 17.4742 2.39563V11.7427ZM36.0502 0L31.7694 10.3288C31.6256 10.6658 31.4946 10.9538 31.3768 11.1895C31.2589 11.4251 31.1575 11.6216 31.0692 11.7785C30.9807 11.9324 30.9055 12.0569 30.8468 12.1549C30.7844 12.2598 30.6961 12.3874 30.5881 12.5314C30.4801 12.6752 30.3427 12.8226 30.1757 12.9731C30.012 13.1205 29.8159 13.2547 29.5834 13.3726C29.3543 13.4903 29.0891 13.5753 28.7848 13.6278L28.4117 13.6866V13.9418H35.4613V13.6866L34.9703 13.6473C34.7773 13.6343 34.571 13.6015 34.3517 13.5492C34.1325 13.4969 33.9263 13.415 33.7298 13.307C33.5337 13.199 33.3699 13.0582 33.2424 12.8814C33.1374 12.7343 33.0656 12.5609 33.0231 12.358C32.9837 12.1583 32.9705 11.9519 32.9904 11.7395C33.0065 11.5301 33.0523 11.3336 33.1245 11.1535L33.8708 9.32734H38.8976L39.7813 11.4874C39.8336 11.6083 39.8762 11.7395 39.9154 11.8833C39.9546 12.0305 39.9742 12.1715 39.9776 12.3121C39.9742 12.6034 39.9187 12.8357 39.8074 13.0059C39.6994 13.1793 39.5586 13.307 39.3886 13.3921C39.2999 13.4444 39.1921 13.4869 39.0678 13.5196C38.9433 13.5524 38.793 13.582 38.6096 13.6047C38.4263 13.6278 38.2005 13.6473 37.9355 13.667L37.6409 13.6866V13.9418H45.3385V13.6866L45.0241 13.667C44.7918 13.6538 44.5625 13.6146 44.3368 13.5492C44.1111 13.4868 43.9048 13.405 43.7151 13.307C43.522 13.2088 43.3647 13.0974 43.2372 12.9799C43.1227 12.8653 43.0113 12.7146 42.9067 12.5314C42.7987 12.3449 42.6808 12.0993 42.5466 11.7918C42.4157 11.4874 42.252 11.098 42.059 10.6233L37.7195 0H36.0502ZM38.4068 7.95271H34.3616L36.3646 3.12218H36.4038L38.4068 7.95271ZM51.2687 1.76727H52.7218C52.8362 1.76405 52.9804 1.7705 53.1538 1.78375C53.3272 1.79683 53.5137 1.82298 53.7166 1.86884C53.9196 1.91129 54.1224 1.9799 54.3253 2.07179C54.5315 2.16673 54.7214 2.29425 54.9014 2.45439C55.0651 2.60504 55.2123 2.80476 55.3465 3.0568C55.4773 3.30865 55.5953 3.58701 55.6933 3.89135C55.7949 4.19891 55.8766 4.51006 55.9389 4.82407C56.0009 5.13826 56.0403 5.43597 56.06 5.71433H56.3152V0.196498H43.7873V5.71433H44.0425C44.062 5.43597 44.1045 5.13826 44.1668 4.82407C44.2258 4.51006 44.3074 4.19891 44.4088 3.89135C44.5072 3.58701 44.6249 3.30865 44.7592 3.0568C44.8901 2.80476 45.0374 2.60504 45.2009 2.45439C45.381 2.29425 45.5708 2.16673 45.7768 2.07179C45.98 1.9799 46.1829 1.91129 46.3859 1.86884C46.5886 1.82298 46.7753 1.79683 46.9487 1.78375C47.1221 1.7705 47.2661 1.76405 47.3807 1.76727H48.8338V11.7427C48.837 11.8571 48.8306 12.0012 48.8107 12.1715C48.7944 12.3417 48.7487 12.5183 48.6799 12.7016C48.6113 12.8814 48.4967 13.0483 48.3428 13.1958C48.202 13.3167 48.0385 13.4118 47.852 13.474C47.662 13.5395 47.469 13.582 47.2725 13.6113C47.073 13.6375 46.8863 13.6538 46.7129 13.667L46.3791 13.6866V13.9418H53.7231V13.6866L53.3894 13.667C53.2158 13.6538 53.0293 13.6375 52.833 13.6113C52.6335 13.582 52.4402 13.5395 52.2505 13.474C52.0638 13.4118 51.9005 13.3167 51.7595 13.1958C51.6058 13.0483 51.4944 12.8814 51.4224 12.7016C51.3538 12.5183 51.3079 12.3417 51.2914 12.1715C51.2719 12.0012 51.2655 11.8571 51.2687 11.7427V1.76727ZM76.2856 0.196498H70.3946L66.7225 9.52383H66.6638L62.9917 0.196498H56.8652V0.451754L57.1991 0.471276C57.3725 0.481128 57.5589 0.500843 57.7586 0.526816C57.9548 0.553148 58.1481 0.598995 58.3378 0.664555C58.5244 0.726533 58.6881 0.818255 58.8288 0.94257C58.9824 1.08999 59.0971 1.25335 59.1659 1.43678C59.2345 1.62003 59.2803 1.79682 59.2968 1.96699C59.3163 2.13716 59.3228 2.28099 59.3196 2.39563V11.3499C59.3228 11.5005 59.3131 11.6836 59.2936 11.8996C59.2739 12.1156 59.228 12.3349 59.1562 12.5543C59.0874 12.7736 58.976 12.96 58.8288 13.1173C58.7012 13.2416 58.5375 13.343 58.3446 13.4216C58.1513 13.5001 57.9516 13.559 57.7488 13.5983C57.5426 13.6375 57.3594 13.6604 57.1991 13.667L56.8652 13.6866V13.9418H63.4827V13.6866L63.1488 13.667C62.9884 13.6604 62.8052 13.6375 62.599 13.5983C62.3961 13.559 62.1965 13.5001 62.0032 13.4216C61.8103 13.343 61.6466 13.2416 61.5191 13.1173C61.4012 12.996 61.3095 12.8554 61.2439 12.6917C61.1753 12.5281 61.1264 12.3612 61.0969 12.1876C61.0673 12.0175 61.0478 11.8571 61.0379 11.7099C61.0313 11.5593 61.0281 11.4416 61.0281 11.3499V2.10116H61.087L65.7604 13.9418H66.6638L71.3372 2.10116H71.3961V11.7427C71.3994 11.8571 71.3929 12.0012 71.3732 12.1715C71.3569 12.3417 71.3143 12.5183 71.2423 12.7016C71.1735 12.8814 71.059 13.0483 70.9052 13.1958C70.7645 13.3167 70.6008 13.4118 70.4144 13.474C70.2245 13.5395 70.0314 13.582 69.8351 13.6113C69.6353 13.6375 69.4489 13.6538 69.2753 13.667L68.9416 13.6866V13.9418H76.2856V13.6866L75.9517 13.667C75.7783 13.6538 75.5918 13.6375 75.3953 13.6113C75.1956 13.582 75.0027 13.5395 74.8162 13.474C74.6262 13.4118 74.4626 13.3167 74.3218 13.1958C74.168 13.0483 74.0569 12.8814 73.9847 12.7016C73.9163 12.5183 73.8702 12.3417 73.854 12.1715C73.8376 12.0012 73.8276 11.8571 73.8312 11.7427V2.39563C73.8276 2.28099 73.8376 2.13716 73.854 1.96699C73.8702 1.79682 73.9163 1.62003 73.9847 1.43678C74.0569 1.25335 74.168 1.08999 74.3218 0.94257C74.4626 0.818255 74.6262 0.726533 74.8162 0.664555C75.0027 0.598995 75.1956 0.553148 75.3953 0.526816C75.5918 0.500843 75.7783 0.481128 75.9517 0.471276L76.2856 0.451754V0.196498ZM83.4921 0L79.2113 10.3288C79.0675 10.6658 78.9365 10.9538 78.8186 11.1895C78.7008 11.4251 78.5994 11.6216 78.5111 11.7785C78.4228 11.9324 78.3474 12.0569 78.2886 12.1549C78.2263 12.2598 78.138 12.3874 78.0299 12.5314C77.9219 12.6752 77.7845 12.8226 77.6176 12.9731C77.4539 13.1205 77.2577 13.2547 77.0252 13.3726C76.7961 13.4903 76.5312 13.5753 76.2269 13.6278L75.8535 13.6866V13.9418H82.9031V13.6866L82.4121 13.6473C82.2192 13.6343 82.0128 13.6015 81.7936 13.5492C81.5743 13.4969 81.3682 13.415 81.1717 13.307C80.9755 13.199 80.8118 13.0582 80.6843 12.8814C80.5793 12.7343 80.5075 12.5609 80.465 12.358C80.4256 12.1583 80.4123 11.9519 80.4322 11.7395C80.4485 11.5301 80.4942 11.3336 80.5664 11.1535L81.3126 9.32734H86.3395L87.2231 11.4874C87.2754 11.6083 87.318 11.7395 87.3573 11.8833C87.3965 12.0305 87.4162 12.1715 87.4194 12.3121C87.4162 12.6034 87.3605 12.8357 87.2493 13.0059C87.1413 13.1793 87.0005 13.307 86.8305 13.3921C86.7418 13.4444 86.634 13.4869 86.5097 13.5196C86.3852 13.5524 86.2349 13.582 86.0514 13.6047C85.8682 13.6278 85.6425 13.6473 85.3774 13.667L85.0827 13.6866V13.9418H92.7803V13.6866L92.466 13.667C92.2337 13.6538 92.0044 13.6146 91.7787 13.5492C91.553 13.4868 91.3468 13.405 91.1569 13.307C90.9638 13.2088 90.8066 13.0974 90.679 12.9799C90.5646 12.8653 90.4533 12.7146 90.3485 12.5314C90.2405 12.3449 90.1227 12.0993 89.9885 11.7918C89.8575 11.4874 89.6938 11.098 89.5009 10.6233L85.1614 0H83.4921ZM85.8487 7.95271H81.8034L83.8064 3.12218H83.8457L85.8487 7.95271ZM92.0735 0.196498V0.451754L92.4465 0.530385C92.6854 0.585914 92.931 0.690535 93.1827 0.841181C93.4347 0.991648 93.6771 1.16503 93.9092 1.36476C94.1417 1.56449 94.3481 1.76405 94.5279 1.9636L99.064 7.01031L95.2348 11.4677C95.1694 11.5496 95.0746 11.6476 94.9567 11.7654C94.8389 11.8833 94.7079 12.0078 94.5706 12.1353C94.4299 12.263 94.299 12.3809 94.1713 12.4888C94.047 12.5969 93.942 12.682 93.8603 12.744C93.5526 12.9699 93.2189 13.1662 92.8588 13.3267C92.5022 13.4868 92.1486 13.6081 91.7984 13.6866V13.9418H99.5157V13.6866L99.0443 13.6473C98.6745 13.6146 98.3897 13.5719 98.1868 13.523C97.9872 13.4705 97.8531 13.4345 97.7875 13.4118C97.6469 13.3593 97.516 13.2939 97.3916 13.2056C97.2673 13.1205 97.1624 13.0123 97.0841 12.8749C97.0054 12.7408 96.9662 12.5738 96.963 12.3709C96.9662 12.2172 97.0087 12.0569 97.0873 11.8867C97.1659 11.7165 97.2542 11.5592 97.3556 11.4154C97.457 11.2714 97.5421 11.1568 97.6109 11.0749L100.105 8.16873L102.795 11.1338C102.935 11.2845 103.067 11.4416 103.191 11.6019C103.315 11.7654 103.42 11.9292 103.499 12.0993C103.577 12.2663 103.616 12.4364 103.62 12.6066C103.616 12.7997 103.564 12.96 103.459 13.0877C103.358 13.2121 103.22 13.3135 103.05 13.3921C102.87 13.4804 102.661 13.546 102.429 13.5886C102.196 13.631 101.964 13.657 101.734 13.667L101.165 13.6866V13.9418H109.412V13.6866C109.196 13.6604 108.961 13.6047 108.709 13.5196C108.453 13.4345 108.185 13.3004 107.9 13.1173C107.544 12.8685 107.197 12.5706 106.866 12.2172C106.536 11.8668 106.185 11.4806 105.819 11.0554L101.636 6.38176L104.287 3.31868C104.477 3.09943 104.677 2.86693 104.886 2.61813C105.099 2.36932 105.325 2.12731 105.567 1.89158C105.806 1.65602 106.068 1.4434 106.349 1.25657C106.522 1.14551 106.712 1.03732 106.925 0.936115C107.138 0.834729 107.36 0.749641 107.593 0.674229C107.822 0.598995 108.048 0.543293 108.273 0.510513L108.666 0.451754V0.196498H100.772V0.451754L101.263 0.490991C101.623 0.520368 101.918 0.572657 102.147 0.644666C102.376 0.716854 102.553 0.805171 102.677 0.903333C102.821 1.01135 102.926 1.12921 102.985 1.26015C103.044 1.39432 103.073 1.54139 103.07 1.70834C103.067 1.90484 103.04 2.07822 102.985 2.23514C102.932 2.38919 102.867 2.52337 102.788 2.64124C102.71 2.7591 102.634 2.86047 102.559 2.94556L100.596 5.24306L97.8074 2.14038C97.7024 2.02251 97.6272 1.91792 97.5878 1.82621C97.5487 1.73467 97.529 1.64959 97.5322 1.57095C97.529 1.4203 97.565 1.27324 97.6469 1.12922C97.7255 0.985022 97.8694 0.857485 98.0822 0.746247C98.1836 0.700211 98.3014 0.65775 98.4388 0.621925C98.5764 0.58592 98.7172 0.55637 98.8578 0.533621C98.9984 0.513917 99.1261 0.497618 99.2408 0.490991L99.6923 0.451754V0.196498H92.0735Z" fill="white"/>
<path d="M0.782125 20.4137C0.866315 20.3608 0.959459 20.3126 1.06138 20.2677C1.16331 20.2233 1.27096 20.1872 1.38417 20.1602C1.49827 20.1324 1.61381 20.1188 1.73042 20.1176C1.89307 20.1176 2.0353 20.1457 2.15639 20.2007C2.27856 20.2566 2.3726 20.3374 2.44085 20.4439C2.5082 20.5516 2.54295 20.6825 2.5442 20.8373C2.54295 20.9539 2.51608 21.0625 2.46108 21.1635C2.40717 21.2642 2.33104 21.3516 2.2336 21.4279C2.13723 21.504 2.02401 21.5635 1.89397 21.6061C1.76535 21.6486 1.6251 21.6701 1.47481 21.6711H1.21257V22.115H1.48144C1.59841 22.115 1.71484 22.1229 1.83127 22.1406C1.94878 22.1575 2.06002 22.1865 2.16535 22.2268C2.2696 22.2675 2.36364 22.3212 2.4455 22.3882C2.52736 22.4555 2.59239 22.5385 2.63932 22.637C2.68751 22.7357 2.71115 22.8536 2.71222 22.9892C2.71222 23.1559 2.67192 23.3041 2.59239 23.4329C2.5116 23.5629 2.39499 23.6637 2.24165 23.7377C2.08671 23.8106 1.8997 23.8486 1.67651 23.85C1.55023 23.8486 1.42448 23.8352 1.29999 23.8094C1.1746 23.7836 1.05673 23.7499 0.947101 23.7087C0.835863 23.6671 0.7386 23.6222 0.65441 23.574L0.5 24.0315C0.676799 24.1345 0.86632 24.2106 1.06927 24.2579C1.27186 24.3047 1.47714 24.3285 1.68349 24.3272C1.85044 24.3272 2.01291 24.3117 2.17197 24.28C2.33229 24.2486 2.48115 24.2004 2.62051 24.1345C2.7604 24.0684 2.88257 23.9833 2.98915 23.88C3.09537 23.7757 3.17849 23.6527 3.23885 23.5081C3.2994 23.3635 3.32968 23.1975 3.33075 23.0094C3.32645 22.7905 3.27683 22.6014 3.18046 22.4401C3.08409 22.2787 2.95405 22.1487 2.78853 22.0523C2.62248 21.9559 2.4344 21.8965 2.22141 21.8726V21.8596C2.39839 21.8178 2.55638 21.7449 2.69628 21.6419C2.83671 21.5388 2.94885 21.411 3.03036 21.2584C3.11222 21.1063 3.15378 20.9371 3.1561 20.7499C3.15378 20.5156 3.0977 20.3159 2.98575 20.1512C2.87362 19.9866 2.71885 19.8598 2.51948 19.7724C2.31976 19.6851 2.08904 19.6413 1.82447 19.6404C1.57691 19.6413 1.35372 19.6741 1.15542 19.7353C0.958384 19.7984 0.782123 19.8799 0.627716 19.9832L0.782125 20.4137ZM4.42683 19.7208V21.6308C4.42809 21.8134 4.4245 22.0018 4.41554 22.1946C4.40766 22.3873 4.39082 22.5734 4.36503 22.7536C4.33834 22.9342 4.29893 23.0968 4.24519 23.2424C4.19146 23.3879 4.1198 23.5047 4.03006 23.5942C3.97399 23.6492 3.90467 23.6994 3.81941 23.7456C3.73396 23.7906 3.64548 23.8207 3.55251 23.8364L3.62649 24.307C3.71516 24.3061 3.80131 24.2959 3.88783 24.2748C3.97292 24.2543 4.05353 24.2275 4.12876 24.1949C4.20364 24.1624 4.26866 24.1288 4.3258 24.0919C4.45155 24.0045 4.5558 23.8936 4.63963 23.7601C4.72275 23.6256 4.78884 23.4744 4.83792 23.3064C4.88754 23.1371 4.92444 22.9575 4.94791 22.767C4.97263 22.5754 4.98821 22.3807 4.99502 22.18C5.0029 21.9792 5.0063 21.7809 5.00505 21.5835V20.212H6.49808V24.2533H7.08973V19.7208H4.42683ZM10.4453 22.8278L10.9295 24.2533H11.5548L10.0083 19.7208H9.30894L7.76218 24.2533H8.36745L8.83802 22.8278H10.4453ZM8.95911 22.3704L9.40298 21.0592C9.44991 20.9202 9.49148 20.7823 9.52748 20.6433C9.56438 20.5054 9.59913 20.3698 9.63173 20.2387H9.64499C9.67759 20.3687 9.71359 20.5034 9.75049 20.6401C9.78757 20.7766 9.8311 20.9179 9.88018 21.0657L10.331 22.3704H8.95911ZM13.081 24.2533H13.6727V20.2186H15.0582V19.7208H11.7028V20.2186H13.081V24.2533ZM17.3912 19.6404C17.0875 19.6413 16.8074 19.6975 16.553 19.8096C16.2974 19.9216 16.0767 20.0819 15.8887 20.2902C15.7002 20.4998 15.5546 20.7499 15.4512 21.0413C15.347 21.3338 15.2945 21.6599 15.2932 22.021C15.2945 22.3647 15.3437 22.6773 15.4424 22.9598C15.5411 23.2414 15.68 23.4843 15.8605 23.6887C16.0411 23.8925 16.2562 24.0492 16.5048 24.1601C16.7536 24.2701 17.0283 24.3262 17.3308 24.3272C17.5629 24.3272 17.7847 24.2936 17.9943 24.2275C18.2039 24.1624 18.3968 24.0637 18.5714 23.9339C18.7464 23.8038 18.8989 23.6437 19.0275 23.4509C19.1566 23.2593 19.2577 23.0373 19.3279 22.785C19.3985 22.5327 19.4345 22.2506 19.4355 21.94C19.4345 21.6004 19.3863 21.2912 19.291 21.0111C19.1959 20.7298 19.0588 20.4875 18.8797 20.2836C18.7015 20.0787 18.4863 19.9205 18.2354 19.8096C17.9853 19.6984 17.7032 19.6413 17.3912 19.6404ZM17.3711 20.1176C17.5662 20.1188 17.741 20.1536 17.8959 20.2232C18.0516 20.2915 18.186 20.3866 18.3015 20.5066C18.417 20.6275 18.5134 20.7667 18.5895 20.9235C18.6658 21.0804 18.723 21.2486 18.761 21.4255C18.7978 21.6038 18.817 21.7843 18.817 21.9671C18.817 22.2259 18.7846 22.4692 18.7206 22.6956C18.6565 22.922 18.5625 23.1212 18.4394 23.2939C18.3149 23.4665 18.1636 23.6021 17.983 23.7008C17.8028 23.7981 17.5964 23.8477 17.3645 23.85C17.1784 23.8486 17.0094 23.8164 16.8568 23.7522C16.7044 23.6872 16.5699 23.5975 16.4524 23.4823C16.3345 23.3668 16.2358 23.2312 16.1563 23.0776C16.0756 22.9229 16.0149 22.7549 15.9737 22.5734C15.9334 22.3919 15.9119 22.2033 15.9119 22.0074C15.9119 21.8091 15.9311 21.6163 15.9705 21.4311C16.0083 21.2463 16.0669 21.0738 16.145 20.9147C16.2225 20.7565 16.32 20.6175 16.4364 20.4978C16.553 20.3789 16.6899 20.2859 16.8457 20.2195C17.0014 20.1525 17.176 20.1188 17.3711 20.1176ZM19.6978 19.7208L21.2041 22.7873C21.2309 22.8401 21.2478 22.886 21.2523 22.9275C21.2566 22.9687 21.2478 23.0137 21.2243 23.0631C21.1874 23.145 21.1425 23.2312 21.0887 23.3196C21.0348 23.4094 20.9721 23.4922 20.8992 23.5708C20.8263 23.6492 20.7434 23.7119 20.6504 23.7612C20.5572 23.8094 20.4519 23.8352 20.3366 23.8364C20.2864 23.8364 20.2438 23.8352 20.2078 23.8318C20.1718 23.8285 20.1415 23.8228 20.1146 23.8164L20.0609 24.2936C20.098 24.307 20.1427 24.3172 20.1952 24.3238C20.249 24.3305 20.314 24.3339 20.3903 24.3339C20.5909 24.3339 20.7761 24.2869 20.9442 24.1938C21.112 24.0997 21.2691 23.9609 21.4124 23.7757C21.4932 23.6704 21.5718 23.5516 21.6467 23.4173C21.723 23.2826 21.7959 23.1403 21.8665 22.9892C21.9372 22.8378 22.0055 22.683 22.0705 22.5261C22.1364 22.3681 22.1993 22.2137 22.26 22.0611L23.2148 19.7208H22.5959L21.8833 21.6443C21.8296 21.8044 21.7801 21.9522 21.7352 22.0869C21.6906 22.2202 21.6478 22.3446 21.6075 22.4579H21.5874C21.5369 22.3269 21.4853 22.1954 21.4316 22.0634C21.3778 21.9321 21.3216 21.7989 21.2646 21.6645L20.3636 19.7208H19.6978ZM26.7448 23.6414C26.6653 23.6793 26.5745 23.713 26.4715 23.7411C26.3683 23.7691 26.2587 23.7906 26.1419 23.806C26.0244 23.8219 25.9054 23.8294 25.7835 23.8294C25.4168 23.8275 25.1042 23.7533 24.8464 23.6054C24.5887 23.4576 24.3913 23.248 24.2546 22.9757C24.1181 22.7043 24.0493 22.3816 24.0484 22.0074C24.0493 21.7089 24.092 21.4447 24.1751 21.2126C24.2589 20.9819 24.3791 20.7855 24.5335 20.6265C24.6893 20.4662 24.8755 20.3452 25.092 20.2621C25.3091 20.1794 25.5501 20.138 25.8171 20.138C26.0065 20.1391 26.1777 20.1568 26.3312 20.1919C26.4851 20.2265 26.616 20.2714 26.7246 20.3261L26.8725 19.8485C26.821 19.8206 26.7461 19.7916 26.6485 19.7602C26.551 19.7298 26.4314 19.7031 26.29 19.6816C26.1474 19.6592 25.9828 19.6482 25.7965 19.647C25.4438 19.6482 25.1234 19.7054 24.8339 19.8186C24.5448 19.9318 24.296 20.0932 24.0864 20.3028C23.8768 20.5124 23.7154 20.7631 23.6022 21.0535C23.4879 21.3449 23.431 21.6701 23.4295 22.0274C23.4319 22.4007 23.4879 22.7301 23.5988 23.0169C23.7099 23.3028 23.8655 23.5427 24.0676 23.7368C24.2682 23.9315 24.5036 24.0784 24.7744 24.178C25.0447 24.2767 25.3405 24.3272 25.6624 24.3272C25.847 24.3262 26.0165 24.316 26.1713 24.2959C26.3257 24.2748 26.4627 24.2477 26.5791 24.2153C26.6956 24.1827 26.7887 24.149 26.8593 24.1119L26.7448 23.6414ZM28.4593 24.2533H29.0511V20.2186H30.4367V19.7208H27.0811V20.2186H28.4593V24.2533ZM32.7696 19.6404C32.466 19.6413 32.1858 19.6975 31.9313 19.8096C31.6758 19.9216 31.4552 20.0819 31.2669 20.2902C31.0785 20.4998 30.933 20.7499 30.8296 21.0413C30.7254 21.3338 30.6729 21.6599 30.6717 22.021C30.6729 22.3647 30.722 22.6773 30.8207 22.9598C30.9194 23.2414 31.0584 23.4843 31.239 23.6887C31.4195 23.8925 31.6347 24.0492 31.8831 24.1601C32.1319 24.2701 32.4065 24.3262 32.7092 24.3272C32.9412 24.3272 33.163 24.2936 33.3725 24.2275C33.5821 24.1624 33.7752 24.0637 33.9499 23.9339C34.1247 23.8038 34.2773 23.6437 34.4059 23.4509C34.5351 23.2593 34.6359 23.0373 34.7063 22.785C34.7769 22.5327 34.8129 22.2506 34.8138 21.94C34.8129 21.6004 34.7647 21.2912 34.6693 21.0111C34.5743 20.7298 34.4373 20.4875 34.2582 20.2836C34.0799 20.0787 33.8646 19.9205 33.6138 19.8096C33.3638 19.6984 33.0815 19.6413 32.7696 19.6404ZM32.7495 20.1176C32.9446 20.1188 33.1194 20.1536 33.2742 20.2232C33.43 20.2915 33.5644 20.3866 33.6799 20.5066C33.7955 20.6275 33.8918 20.7667 33.968 20.9235C34.0443 21.0804 34.1014 21.2486 34.1392 21.4255C34.1763 21.6038 34.1955 21.7843 34.1955 21.9671C34.1955 22.2259 34.163 22.4692 34.0991 22.6956C34.035 22.922 33.9409 23.1212 33.8179 23.2939C33.6934 23.4665 33.542 23.6021 33.3614 23.7008C33.1812 23.7981 32.9749 23.8477 32.7429 23.85C32.5568 23.8486 32.3877 23.8164 32.2353 23.7522C32.0828 23.6872 31.9481 23.5975 31.8306 23.4823C31.7129 23.3668 31.6142 23.2312 31.5347 23.0776C31.4541 22.9229 31.3934 22.7549 31.3522 22.5734C31.3119 22.3919 31.2904 22.2033 31.2904 22.0074C31.2904 21.8091 31.3095 21.6163 31.3488 21.4311C31.3867 21.2463 31.4451 21.0738 31.5234 20.9147C31.601 20.7565 31.6982 20.6175 31.8148 20.4978C31.9313 20.3789 32.0683 20.2859 32.2242 20.2195C32.3798 20.1525 32.5545 20.1188 32.7495 20.1176ZM35.5737 24.2396C35.6713 24.2533 35.7967 24.2654 35.9491 24.2767C36.1017 24.2869 36.28 24.2925 36.4815 24.2936C36.8516 24.2936 37.1654 24.2599 37.4231 24.1906C37.6818 24.1209 37.8882 24.0147 38.0417 23.8701C38.1604 23.7625 38.2559 23.6335 38.3251 23.4823C38.3947 23.3308 38.4304 23.1572 38.4318 22.9621C38.4304 22.7941 38.4014 22.645 38.3465 22.5159C38.2905 22.3873 38.2176 22.275 38.1259 22.1833C38.0338 22.0901 37.934 22.0152 37.8242 21.9568C37.7155 21.8984 37.6057 21.8573 37.4971 21.8325V21.8123C37.6551 21.7552 37.7905 21.6767 37.905 21.578C38.0191 21.4793 38.1076 21.3652 38.1694 21.2351C38.231 21.1051 38.2624 20.9661 38.2634 20.8169C38.2624 20.6387 38.2278 20.4819 38.1604 20.3486C38.0922 20.2152 37.999 20.1043 37.8803 20.0169C37.7895 19.9406 37.6852 19.8779 37.5677 19.8297C37.4498 19.7815 37.3142 19.7457 37.1631 19.7222C37.0106 19.6984 36.837 19.6871 36.6429 19.6871C36.5073 19.6871 36.374 19.6918 36.2429 19.6997C36.1116 19.7086 35.9894 19.7199 35.8753 19.7353C35.7598 19.7502 35.66 19.7681 35.5737 19.7882V24.2396ZM36.1587 20.1783C36.2047 20.167 36.2687 20.1582 36.3514 20.1502C36.4344 20.1423 36.5433 20.138 36.6765 20.138C36.875 20.1367 37.0486 20.1625 37.1955 20.213C37.3436 20.2634 37.4588 20.3429 37.5407 20.4529C37.6225 20.5614 37.6641 20.7028 37.665 20.8776C37.665 21.0245 37.6257 21.1556 37.5485 21.271C37.4713 21.3852 37.3601 21.4761 37.2146 21.542C37.0701 21.6093 36.8951 21.643 36.6902 21.6443H36.1587V20.1783ZM36.1587 22.0813H36.6429C36.8043 22.0813 36.9546 22.0982 37.0957 22.1319C37.236 22.1655 37.3601 22.218 37.4677 22.2886C37.5752 22.3592 37.6594 22.45 37.7201 22.5609C37.7805 22.6707 37.8119 22.803 37.8129 22.9555C37.8119 23.1188 37.7792 23.2582 37.7165 23.3711C37.6539 23.4843 37.5677 23.5754 37.4588 23.6437C37.3488 23.7119 37.2258 23.7612 37.0868 23.7915C36.9479 23.8219 36.8019 23.8375 36.6495 23.8364C36.5456 23.8364 36.4524 23.8341 36.3717 23.8309C36.2898 23.8262 36.2192 23.8196 36.1587 23.8094V22.0813ZM42.2644 23.6414C42.1849 23.6793 42.0941 23.713 41.9913 23.7411C41.8879 23.7691 41.7783 23.7906 41.6615 23.806C41.544 23.8219 41.4252 23.8294 41.303 23.8294C40.9364 23.8275 40.6238 23.7533 40.366 23.6054C40.1083 23.4576 39.9109 23.248 39.7744 22.9757C39.6377 22.7043 39.5691 22.3816 39.568 22.0074C39.5691 21.7089 39.6115 21.4447 39.6948 21.2126C39.7787 20.9819 39.8987 20.7855 40.0533 20.6265C40.2089 20.4662 40.395 20.3452 40.6116 20.2621C40.8287 20.1794 41.0696 20.138 41.3367 20.138C41.5262 20.1391 41.6975 20.1568 41.851 20.1919C42.0047 20.2265 42.1358 20.2714 42.2444 20.3261L42.3921 19.8485C42.3407 19.8206 42.2659 19.7916 42.1681 19.7602C42.0708 19.7298 41.9509 19.7031 41.8096 19.6816C41.667 19.6592 41.5024 19.6482 41.3163 19.647C40.9634 19.6482 40.643 19.7054 40.3535 19.8186C40.0644 19.9318 39.8156 20.0932 39.606 20.3028C39.3964 20.5124 39.235 20.7631 39.1218 21.0535C39.0077 21.3449 38.9506 21.6701 38.9493 22.0274C38.9515 22.4007 39.0077 22.7301 39.1186 23.0169C39.2295 23.3028 39.3851 23.5427 39.5872 23.7368C39.7878 23.9315 40.0232 24.0784 40.2942 24.178C40.5645 24.2767 40.8601 24.3272 41.1819 24.3272C41.3668 24.3262 41.5361 24.316 41.6908 24.2959C41.8453 24.2748 41.9823 24.2477 42.0987 24.2153C42.2153 24.1827 42.3083 24.149 42.3789 24.1119L42.2644 23.6414ZM43.1183 19.7208V24.2533H43.7034V22.1754H43.8918C44.0822 22.1754 44.2459 22.2001 44.3826 22.2483C44.5182 22.2976 44.6348 22.3658 44.7301 22.4555C44.8252 22.544 44.906 22.6506 44.9721 22.774C45.0395 22.8971 45.0979 23.0338 45.1493 23.1839C45.1919 23.3041 45.2345 23.4262 45.277 23.5505C45.3196 23.6761 45.3644 23.7981 45.4113 23.9183C45.4586 24.037 45.51 24.149 45.5661 24.2533H46.1916C46.1275 24.1189 46.0682 23.9821 46.0143 23.8443C45.9605 23.7051 45.9091 23.5641 45.8575 23.4183C45.8061 23.2727 45.751 23.1235 45.6938 22.9687C45.6378 22.8152 45.5751 22.673 45.5045 22.5421C45.4352 22.4107 45.3519 22.2942 45.2546 22.1922C45.1582 22.0901 45.0427 22.005 44.9071 21.9377C44.7715 21.8703 44.6101 21.8245 44.4229 21.7989L46.1377 19.7208H45.4384L43.885 21.7315H43.7034V19.7208H43.1183ZM46.7628 19.7208V24.2533H47.3882L48.807 21.9938C48.9641 21.744 49.1144 21.4906 49.2599 21.2341C49.4059 20.9774 49.5357 20.7243 49.6477 20.474L49.6678 20.481C49.6523 20.6704 49.6411 20.8595 49.6332 21.0489C49.6253 21.2396 49.621 21.439 49.6176 21.6462C49.6153 21.8549 49.614 22.0799 49.614 22.3232V24.2533H50.1655V19.7208H49.5807L48.1147 22.0543C47.9499 22.3223 47.7975 22.5809 47.6572 22.8297C47.5173 23.0777 47.3919 23.3196 47.2807 23.5539L47.2605 23.5473C47.2741 23.3467 47.2843 23.1437 47.2918 22.9397C47.2999 22.7357 47.3054 22.5261 47.3101 22.3101C47.3133 22.0935 47.3144 21.8671 47.3144 21.6308V19.7208H46.7628ZM53.5279 21.6443H51.7728V20.212H53.6356V19.7208H51.181V24.2533H53.7364V23.7624H51.7728V22.1284H53.5279V21.6443ZM91.5504 19.7208V24.2533H92.1422V22.1284H94.3344V24.2533H94.926V19.7208H94.3344V21.6172H92.1422V19.7208H91.5504ZM97.7704 19.6404C97.4666 19.6413 97.1864 19.6975 96.9321 19.8096C96.6767 19.9216 96.4558 20.0819 96.2677 20.2902C96.0793 20.4998 95.9336 20.7499 95.8305 21.0413C95.726 21.3338 95.6735 21.6599 95.6723 22.021C95.6735 22.3647 95.7228 22.6773 95.8215 22.9598C95.9202 23.2414 96.059 23.4843 96.2396 23.6887C96.4201 23.8925 96.6353 24.0492 96.8839 24.1601C97.1327 24.2701 97.4073 24.3262 97.7099 24.3272C97.942 24.3272 98.1638 24.2936 98.3733 24.2275C98.5829 24.1624 98.776 24.0637 98.9505 23.9339C99.1255 23.8038 99.2779 23.6437 99.4067 23.4509C99.5357 23.2593 99.6367 23.0373 99.707 22.785C99.7775 22.5327 99.8135 22.2506 99.8146 21.94C99.8135 21.6004 99.7654 21.2912 99.6701 21.0111C99.5749 20.7298 99.4381 20.4875 99.2588 20.2836C99.0805 20.0787 98.8654 19.9205 98.6146 19.8096C98.3644 19.6984 98.0823 19.6413 97.7704 19.6404ZM97.7502 20.1176C97.9452 20.1188 98.1202 20.1536 98.275 20.2232C98.4307 20.2915 98.565 20.3866 98.6806 20.5066C98.7961 20.6275 98.8925 20.7667 98.9688 20.9235C99.0449 21.0804 99.102 21.2486 99.14 21.4255C99.1769 21.6038 99.1961 21.7843 99.1961 21.9671C99.1961 22.2259 99.1637 22.4692 99.0997 22.6956C99.0358 22.922 98.9416 23.1212 98.8185 23.2939C98.6942 23.4665 98.5426 23.6021 98.3621 23.7008C98.1819 23.7981 97.9757 23.8477 97.7435 23.85C97.5574 23.8486 97.3885 23.8164 97.2361 23.7522C97.0835 23.6872 96.9489 23.5975 96.8314 23.4823C96.7136 23.3668 96.6149 23.2312 96.5353 23.0776C96.4547 22.9229 96.394 22.7549 96.3528 22.5734C96.3125 22.3919 96.2912 22.2033 96.2912 22.0074C96.2912 21.8091 96.3102 21.6163 96.3496 21.4311C96.3876 21.2463 96.4459 21.0738 96.524 20.9147C96.6016 20.7565 96.6991 20.6175 96.8155 20.4978C96.9321 20.3789 97.0689 20.2859 97.2248 20.2195C97.3806 20.1525 97.5551 20.1188 97.7502 20.1176ZM100.211 19.7208L101.812 21.8057C101.636 21.8279 101.485 21.8703 101.355 21.9345C101.228 21.9984 101.117 22.0799 101.024 22.1809C100.932 22.282 100.851 22.3995 100.782 22.5327C100.714 22.6664 100.651 22.8143 100.595 22.9757C100.547 23.1169 100.499 23.2593 100.454 23.4028C100.409 23.5461 100.36 23.6886 100.31 23.8309C100.259 23.9731 100.201 24.1143 100.137 24.2533H100.736C100.785 24.1513 100.83 24.0381 100.873 23.9147C100.914 23.7915 100.955 23.6681 100.993 23.5427C101.031 23.4173 101.068 23.2994 101.106 23.1909C101.158 23.035 101.216 22.8962 101.276 22.7704C101.338 22.6459 101.411 22.5397 101.496 22.4512C101.581 22.3626 101.686 22.2941 101.812 22.247C101.936 22.2001 102.088 22.1754 102.269 22.1754H102.478V24.2533H103.042V22.1754H103.244C103.425 22.1754 103.577 22.2001 103.702 22.247C103.827 22.2941 103.932 22.3626 104.017 22.4512C104.103 22.5397 104.175 22.6459 104.237 22.7704C104.297 22.8962 104.355 23.035 104.407 23.1909C104.443 23.2994 104.479 23.4173 104.517 23.5427C104.554 23.6681 104.594 23.7915 104.636 23.9147C104.679 24.0381 104.726 24.1513 104.777 24.2533H105.376C105.314 24.1143 105.258 23.9731 105.21 23.8309C105.162 23.6886 105.115 23.545 105.071 23.4004C105.027 23.2559 104.98 23.1124 104.932 22.9687C104.876 22.8064 104.813 22.6585 104.744 22.5238C104.674 22.3896 104.592 22.2718 104.498 22.1698C104.404 22.0692 104.292 21.9873 104.162 21.9243C104.032 21.8628 103.878 21.8221 103.701 21.8057L105.308 19.7208H104.63L103.224 21.7315H103.042V19.7208H102.478V21.7315H102.296L100.89 19.7208H100.211ZM105.96 19.7208V24.2533H106.586L108.005 21.9938C108.162 21.744 108.312 21.4906 108.457 21.2341C108.603 20.9774 108.734 20.7243 108.845 20.474L108.866 20.481C108.85 20.6704 108.839 20.8595 108.831 21.0489C108.823 21.2396 108.819 21.439 108.815 21.6462C108.813 21.8549 108.812 22.0799 108.812 22.3232V24.2533H109.363V19.7208H108.778L107.312 22.0543C107.148 22.3223 106.995 22.5809 106.855 22.8297C106.715 23.0777 106.59 23.3196 106.478 23.5539L106.458 23.5473C106.472 23.3467 106.482 23.1437 106.49 22.9397C106.497 22.7357 106.503 22.5261 106.508 22.3101C106.511 22.0935 106.512 21.8671 106.512 21.6308V19.7208H105.96Z" fill="white"/>
</svg>
